<?xml version="1.0" standalone="no"?><!DOCTYPE svg PUBLIC "-//W3C//DTD SVG 1.1//EN" "http://www.w3.org/Graphics/SVG/1.1/DTD/svg11.dtd"><svg t="1618196470616" class="icon" viewBox="0 0 1024 1024" version="1.1" xmlns="http://www.w3.org/2000/svg" p-id="1167" xmlns:xlink="http://www.w3.org/1999/xlink" width="64" height="64"><defs><style type="text/css"></style></defs><path d="M845.08469728 21.49944889H178.91530272c-44.66157037 0-81.16754963 36.50597925-81.16754963 81.16754963v833.42373926c0 25.50240395 30.16274173 38.96560197 49.06300049 21.87769679l57.73640692-51.78153087c11.3919368-10.22685235 28.60929581-9.96794469 39.74232493 0.38836148l84.79225679 79.22574223c10.09739852 9.45012939 25.37295013 10.61521383 36.76488692 2.71853037l129.45382716-88.93477926c9.96794469-6.86105283 23.30168889-6.86105283 33.26963357 0l129.84218865 89.06423309c11.26248297 7.76722963 26.53803457 6.60214518 36.63543309-2.58907655l85.82788741-79.22574223c11.13302914-10.35630617 28.35038815-10.35630617 39.61287111-0.25890765l56.44186863 51.00480791c18.90025876 17.08790518 49.19245431 3.62470717 49.19245433-21.87769679V102.66699852c0.12945383-44.66157037-36.37652543-81.16754963-81.03809581-81.16754963zM180.59820247 222.02342717c0-22.78387358 18.64135111-41.55467852 41.55467851-41.55467853h249.58697877c22.78387358 0 41.55467852 18.64135111 41.55467852 41.55467853 0 22.78387358-18.64135111 41.55467852-41.55467852 41.55467852H222.15288098c-22.78387358 0-41.55467852-18.77080494-41.55467851-41.55467852z m414.38170073 165.95980641c0 22.78387358-18.64135111 41.55467852-41.55467851 41.55467852H222.15288098c-22.78387358 0-41.55467852-18.64135111-41.55467851-41.55467852 0-22.78387358 18.64135111-41.55467852 41.55467851-41.55467852H553.42522469c22.91332741 0 41.55467852 18.64135111 41.55467851 41.55467852z" p-id="1168" fill="#ffffff"></path></svg>